{
	"patcher" : 	{
		"fileversion" : 1,
		"appversion" : 		{
			"major" : 8,
			"minor" : 0,
			"revision" : 6,
			"architecture" : "x64",
			"modernui" : 1
		}
,
		"classnamespace" : "box",
		"rect" : [ 42.0, 84.0, 1192.0, 922.0 ],
		"bglocked" : 0,
		"openinpresentation" : 1,
		"default_fontsize" : 12.0,
		"default_fontface" : 0,
		"default_fontname" : "Arial",
		"gridonopen" : 1,
		"gridsize" : [ 15.0, 15.0 ],
		"gridsnaponopen" : 1,
		"objectsnaponopen" : 1,
		"statusbarvisible" : 2,
		"toolbarvisible" : 1,
		"lefttoolbarpinned" : 0,
		"toptoolbarpinned" : 0,
		"righttoolbarpinned" : 0,
		"bottomtoolbarpinned" : 0,
		"toolbars_unpinned_last_save" : 0,
		"tallnewobj" : 0,
		"boxanimatetime" : 200,
		"enablehscroll" : 1,
		"enablevscroll" : 1,
		"devicewidth" : 0.0,
		"description" : "",
		"digest" : "",
		"tags" : "",
		"style" : "",
		"subpatcher_template" : "",
		"boxes" : [ 			{
				"box" : 				{
					"id" : "obj-123",
					"linecount" : 2,
					"maxclass" : "comment",
					"numinlets" : 1,
					"numoutlets" : 0,
					"patching_rect" : [ 93.0, 9.0, 150.0, 34.0 ],
					"text" : "(c) Kyle Vanderburg\nkylevanderburg.com"
				}

			}
, 			{
				"box" : 				{
					"id" : "obj-148",
					"linecount" : 3,
					"maxclass" : "comment",
					"numinlets" : 1,
					"numoutlets" : 0,
					"patching_rect" : [ 87.0, 119.0, 155.0, 48.0 ],
					"presentation" : 1,
					"presentation_rect" : [ 13.75, 239.0, 455.0, 20.0 ],
					"text" : "1            2            3             4            5            6             7            8             M"
				}

			}
, 			{
				"box" : 				{
					"id" : "obj-117",
					"maxclass" : "dial",
					"needlecolor" : [ 0.439216, 0.74902, 0.254902, 1.0 ],
					"numinlets" : 1,
					"numoutlets" : 1,
					"outlettype" : [ "float" ],
					"parameter_enable" : 0,
					"patching_rect" : [ 666.5, 165.0, 40.0, 40.0 ],
					"presentation" : 1,
					"presentation_rect" : [ 344.75, 9.0, 24.0, 24.0 ]
				}

			}
, 			{
				"box" : 				{
					"id" : "obj-118",
					"maxclass" : "dial",
					"needlecolor" : [ 0.439216, 0.74902, 0.254902, 1.0 ],
					"numinlets" : 1,
					"numoutlets" : 1,
					"outlettype" : [ "float" ],
					"parameter_enable" : 0,
					"patching_rect" : [ 647.5, 210.0, 40.0, 40.0 ],
					"presentation" : 1,
					"presentation_rect" : [ 344.75, 37.0, 24.0, 24.0 ]
				}

			}
, 			{
				"box" : 				{
					"id" : "obj-119",
					"maxclass" : "dial",
					"needlecolor" : [ 0.439216, 0.74902, 0.254902, 1.0 ],
					"numinlets" : 1,
					"numoutlets" : 1,
					"outlettype" : [ "float" ],
					"parameter_enable" : 0,
					"patching_rect" : [ 628.5, 255.0, 40.0, 40.0 ],
					"presentation" : 1,
					"presentation_rect" : [ 344.75, 65.0, 24.0, 24.0 ]
				}

			}
, 			{
				"box" : 				{
					"id" : "obj-120",
					"maxclass" : "dial",
					"needlecolor" : [ 0.439216, 0.74902, 0.254902, 1.0 ],
					"numinlets" : 1,
					"numoutlets" : 1,
					"outlettype" : [ "float" ],
					"parameter_enable" : 0,
					"patching_rect" : [ 609.5, 165.0, 40.0, 40.0 ],
					"presentation" : 1,
					"presentation_rect" : [ 296.75, 9.0, 24.0, 24.0 ]
				}

			}
, 			{
				"box" : 				{
					"id" : "obj-121",
					"maxclass" : "dial",
					"needlecolor" : [ 0.439216, 0.74902, 0.254902, 1.0 ],
					"numinlets" : 1,
					"numoutlets" : 1,
					"outlettype" : [ "float" ],
					"parameter_enable" : 0,
					"patching_rect" : [ 590.5, 210.0, 40.0, 40.0 ],
					"presentation" : 1,
					"presentation_rect" : [ 296.75, 37.0, 24.0, 24.0 ]
				}

			}
, 			{
				"box" : 				{
					"id" : "obj-122",
					"maxclass" : "dial",
					"needlecolor" : [ 0.439216, 0.74902, 0.254902, 1.0 ],
					"numinlets" : 1,
					"numoutlets" : 1,
					"outlettype" : [ "float" ],
					"parameter_enable" : 0,
					"patching_rect" : [ 571.5, 255.0, 40.0, 40.0 ],
					"presentation" : 1,
					"presentation_rect" : [ 296.75, 65.0, 24.0, 24.0 ]
				}

			}
, 			{
				"box" : 				{
					"id" : "obj-5",
					"maxclass" : "dial",
					"needlecolor" : [ 0.439216, 0.74902, 0.254902, 1.0 ],
					"numinlets" : 1,
					"numoutlets" : 1,
					"outlettype" : [ "float" ],
					"parameter_enable" : 0,
					"patching_rect" : [ 560.0, 165.0, 40.0, 40.0 ],
					"presentation" : 1,
					"presentation_rect" : [ 248.75, 9.0, 24.0, 24.0 ]
				}

			}
, 			{
				"box" : 				{
					"id" : "obj-6",
					"maxclass" : "dial",
					"needlecolor" : [ 0.439216, 0.74902, 0.254902, 1.0 ],
					"numinlets" : 1,
					"numoutlets" : 1,
					"outlettype" : [ "float" ],
					"parameter_enable" : 0,
					"patching_rect" : [ 541.0, 210.0, 40.0, 40.0 ],
					"presentation" : 1,
					"presentation_rect" : [ 248.75, 37.0, 24.0, 24.0 ]
				}

			}
, 			{
				"box" : 				{
					"id" : "obj-7",
					"maxclass" : "dial",
					"needlecolor" : [ 0.439216, 0.74902, 0.254902, 1.0 ],
					"numinlets" : 1,
					"numoutlets" : 1,
					"outlettype" : [ "float" ],
					"parameter_enable" : 0,
					"patching_rect" : [ 522.0, 255.0, 40.0, 40.0 ],
					"presentation" : 1,
					"presentation_rect" : [ 248.75, 65.0, 24.0, 24.0 ]
				}

			}
, 			{
				"box" : 				{
					"id" : "obj-8",
					"maxclass" : "dial",
					"needlecolor" : [ 0.439216, 0.74902, 0.254902, 1.0 ],
					"numinlets" : 1,
					"numoutlets" : 1,
					"outlettype" : [ "float" ],
					"parameter_enable" : 0,
					"patching_rect" : [ 503.0, 165.0, 40.0, 40.0 ],
					"presentation" : 1,
					"presentation_rect" : [ 200.75, 9.0, 24.0, 24.0 ]
				}

			}
, 			{
				"box" : 				{
					"id" : "obj-12",
					"maxclass" : "dial",
					"needlecolor" : [ 0.439216, 0.74902, 0.254902, 1.0 ],
					"numinlets" : 1,
					"numoutlets" : 1,
					"outlettype" : [ "float" ],
					"parameter_enable" : 0,
					"patching_rect" : [ 484.0, 210.0, 40.0, 40.0 ],
					"presentation" : 1,
					"presentation_rect" : [ 200.75, 37.0, 24.0, 24.0 ]
				}

			}
, 			{
				"box" : 				{
					"id" : "obj-21",
					"maxclass" : "dial",
					"needlecolor" : [ 0.439216, 0.74902, 0.254902, 1.0 ],
					"numinlets" : 1,
					"numoutlets" : 1,
					"outlettype" : [ "float" ],
					"parameter_enable" : 0,
					"patching_rect" : [ 465.0, 255.0, 40.0, 40.0 ],
					"presentation" : 1,
					"presentation_rect" : [ 200.75, 65.0, 24.0, 24.0 ]
				}

			}
, 			{
				"box" : 				{
					"id" : "obj-22",
					"maxclass" : "dial",
					"needlecolor" : [ 0.439216, 0.74902, 0.254902, 1.0 ],
					"numinlets" : 1,
					"numoutlets" : 1,
					"outlettype" : [ "float" ],
					"parameter_enable" : 0,
					"patching_rect" : [ 446.0, 165.0, 40.0, 40.0 ],
					"presentation" : 1,
					"presentation_rect" : [ 152.75, 9.0, 24.0, 24.0 ]
				}

			}
, 			{
				"box" : 				{
					"id" : "obj-112",
					"maxclass" : "dial",
					"needlecolor" : [ 0.439216, 0.74902, 0.254902, 1.0 ],
					"numinlets" : 1,
					"numoutlets" : 1,
					"outlettype" : [ "float" ],
					"parameter_enable" : 0,
					"patching_rect" : [ 427.0, 210.0, 40.0, 40.0 ],
					"presentation" : 1,
					"presentation_rect" : [ 152.75, 37.0, 24.0, 24.0 ]
				}

			}
, 			{
				"box" : 				{
					"id" : "obj-113",
					"maxclass" : "dial",
					"needlecolor" : [ 0.439216, 0.74902, 0.254902, 1.0 ],
					"numinlets" : 1,
					"numoutlets" : 1,
					"outlettype" : [ "float" ],
					"parameter_enable" : 0,
					"patching_rect" : [ 408.0, 255.0, 40.0, 40.0 ],
					"presentation" : 1,
					"presentation_rect" : [ 152.75, 65.0, 24.0, 24.0 ]
				}

			}
, 			{
				"box" : 				{
					"autofit" : 1,
					"data" : [ 5550, "", "IBkSG0fBZn....PCIgDQRA...7H...vNHX....fP3jM7....DLmPIQEBHf.B7g.YHB..UTVRDEDU3wY6ckGUSdk99IgDRBaxlrIEYQLrD1BaJsfRXyUZqHfmwi8Tw5L1pRq5oS0p1VGmZqcpVacZUloZcLXqyHUYoHJEvBIroXirEfPYsnCHPKhKrJu+9CJeGSYwN+lVcBvy4bOGxku686t7j2668999dCvzXZLM9uCpTohps1ZoG2sCMIv5wcC3wExHiLnRJoDTSM0fe3G9Azau8B.fcsqcAIRjLtiKu268dTO8zCryN6fat4F7xKulxNFNkqiehSbBRtb4npppBM2byns1ZC82e+..Pf.A3Lm4LXYKaYi43hb4xom64dNzWe8ASM0TLqYMKXu81CO8zS3me9A2c28obimSIvW7EeAs90udxCO7f3ymOAfQkDJTHUXgENtKccfCbfQUFABDPt5pqTLwDC8tu66R4latSuz2jIjPBIP95quiKoA.DKVrnm+4edRkJUi4jekUVI8rO6yNtkG.jEVXAs7kub5PG5PjBEJlzSh373tA7n.W8pWEkVZoLKOMBXwhEzUWcgc1YGlyblCV4JWIl6bm6XtzSas0Ft5Uu5D9dZs0VQZokFJszRQGczwudcf+GESIHOBEJDVYkUnwFaD..rYyFFXfAvEWbAN5nivKu7BBEJD1au8iacnRkJ78e+2yTd2c2cviGOzVasgVasUFEt0SO8fIlXB3xk6u48qG2XJA4Iv.CD4me9n4laFCMzPPas0Fd5om38e+2G5qu9Hu7xC+8+9eG1XiMnlZpgDJTnZReTpTIcfCb.PDAVrXAiLxH7Nuy6.tb4hhJpHHSlLzXiMhAGbP3t6tiUu5UiUtxUNsxySVv9129HiLxHB.jN5nCEYjQR..uvK7BjVZoEA.RWc0kRN4jGktJYlYljHQhH.P73wiV1xVFAL711SM0ToxJqLJyLyjt3Eu3jd8blThSe5SOgSbYmc1TDQDAixsN3fCzYNyYn8u+8Sb4xkI+W60dsQUOG6XGi4YLxHin+1e6uQG8nGkL1XiIVrXQ96u+TVYk0zDGMMnRkJZCaXCjYlYFsu8suIbBbO6YODGNbH.PFZngz5V25H.fQHA.f7wGenKcoKwTOUWc0zl1zlXHWyZVyh..d5m9oIABDP.fzWe8oScpSMki7v9wcC3+VHUpTHUpTzYmchO6y9rI7Y8xKufWd4E..5t6tQd4kGTpTIEYjQBABD..fxKubTSM0vTlFZnATRIk.fgUFd9ye9..nvBKjQIYO8zSXs0V+qde6+0gFM4IgDRfN9wONt6cuKt+8uOZokVv1291GWI.QFYjrBN3fA.vPCMDZu81QxImLVyZVCzQGc..Pe80GJrvBw0t10H.f5qudTYkUB..CLv.DXfAhO8S+Tp6t6FDM7qxO+7CKXAK3WjBxETPASIkR8+THmbxghHhHXVtA+zA88DOwSLtGzG.PRIkDYu81S.f3vgC4omdR..gEVXLKC4niNR+q+0+h..hO93IVrXQrXwhb2c2oKe4KSOyy7LLJYykKWJwDS7gRFt3EuHs90udxO+7iDJTHssssMppppRilDowtU8qbkqfhKtXlu8OBFZngF2C5C.vYmcFRjHA0We8XvAGDe228c3rm8rTKszBprxJQO8zCZpolPQEUDNxQNB8O+m+SPDgYLiY.QhDA1rYi7yOeLzPCwTe1Ymcia6LojRhxJqrva7FuApt5pwHRrtyctCrvBK9UZzXZ7KFkTRITrwF6nLO.e97oW+0ecRlLYz67NuCIUpzw7a1IlXhjgFZHizmXiMVRgBEz7m+7Y1UkPgBIwhESlXhIL6N6fG7fzQO5QU6c9RuzKMluiScpSQuzK8Rje94Gomd5Mllyvau8lQB2z3QD9G+i+A4pqtp1Dg1ZqMEP.APJTnfdwW7EIKrvBxSO8j1vF1.IUpTplZpgYR5ZW6ZzhW7hYVpyLyLiJt3hoMtwMRyblybTSxrYylBLv.ou9q+ZJpnhRskIePBZUUUEIUpTZiabij2d6MoiN5Lg1BiKWtTbwEGUd4kqQRfzHW1p1ZqEM0TSLelMa1vBKr.wEWbnkVZAolZpLlMnhJp.xkKGAETPHwDSj7vCOfat4FqidziRYmc1n+96G27l2DYmc13IexmDxjICs2d6p89Lv.CfCN3.3wiGJrvBYxmEKVn2d6E4me9T80WO9nO5ifLYxfJUpFkczFKLv.CfbyMWHVr3e8FbdDBMRxSyM2LtyctCym4ymODIRDdgW3EXsm8rGZngFBrXwBDQXvAGDUTQEPoRkHiLx.gDRHPpToz8t28.WtbYljSM0TwANvAfCN3.ps1ZQO8zCS8akUVAWc0UTVYkgabiavj+PCMDN8oOMzWe8QokVJZt4lw8u+8UqsxgCGXt4lCas0VnkVZAEJTf6bm6vnqVCMz.JrvBQUUUE4ryNqQYRCsdb2.9OEYkUVTFYjApu95YxSf.AvYmcFe1m8Yukt5pKzRKs.GNb.QD5u+9w8u+8AQD5pqtfBEJPt4lKTpTIt90uNSczVasgPCMTviGOTWc0ge7G+Q.LrTMwhEivBKLjZpohpppJ0ZOMzPCn5pqFc0UWLDBVrXAczQGXs0VCO7vCrnEsHrhUrB7rO6yhxKubbyadSL3fCB.vTFqs1ZjRJormeSG79UFZbRdZngFT6a+.CefeojRJnt5pCQEUTHt3hCc0UWPtb4H2byE0We83G+weD26d2CDQnyN6Dc1YmpUGCLv.HiLx.QFYjvAGb.MzPCXngFB5qu9vd6sG5niNPlLYSXaiMa1PWc0EyblyDBEJDRjHA96u+nu95CW5RWB1ZqsXIKYIn95qWs9P80WOJszR+0aP5QDz3j73qu99V4lat3t28tpk+8u+8w+9e+uQN4jCRN4jA.vRW5RQzQGMbxImv.CL.tyctCFbvAYjD8ywMu4MQLwDC5pqtPM0TC5omdfyN6LV3BWHZu81w4N24Fy1jVZoEijlvCObr4MuYrpUsJzWe8gDRHA7m+y+Y7Mey2fd6sWrhUrBje94iVasUlxOv.C.qs1ZTUUUoQI4QiColZpTHgDBwmOe0NfvwJwkKWZgKbgzm9oeJA.bkqbEZaaaaj81aOwlM6wr76cu6k93O9io4Mu4Q.fhJpnnu3K9B5oe5mdL89P1rYSN4jSzt28toxJqLpxJqj1291G4t6tOpm+mNd.7JuxqPlat4Da1rYRKZQKhJojRzH20kFGxLyLoMtwMRN3fCSHAhCGNjN5nC4hKtPu7K+xLF87XG6XjDIRH1rYq1yufEr.JkTRgV25VGYjQFQae6amRJojHyM27Qs88PCMT5Dm3DjJUpnzSOcZsqcsjc1YGIPf.lSfF+DIyTSMk18t2MC4njRJgN24NGkPBIP+o+zehNwINgFGwQiR69wBUVYkjBEJvW9keIxJqrvsu8sGymiCGNL5i3latgHhHB3u+9i1aucb5SeZjd5oi1aucHPf.7AevGft6tabsqcM3me9gt6ta7Fuwa...iM1XDYjQhXiMVXhIlfhJpHb9yednToRzQGcf6cu6wb5yb4xEyd1yFqZUqBwDSLS5hthIMcFUpTQe+2+8Ptb4HiLx.kVZopsc6Q.a1rgN5nCLyLyvrm8rQfAFHl+7mO3ymOjISFRO8zwBVvBfDIRfolZJZpolvW9keITpTIV1xVFBN3fQu81KJnfBfb4xYBemd5oGF8nF4nCV4JWIjHQB7yO+lzLN+fXRYmpvBKjTpTIJnfBPd4kGZpolFyCsiKWtvRKsD1Zqsvc2cGhDIBVYkUvZqsFhEKlYr4RW5Rzst0svMu4MQEUTATnPAZrwFQqs1JFXfAXpO8zSO3iO9fkrjkf4Mu4gfBJnIkiuSIPEUTAclybFJ7vCWMuEbrRlXhIz7l27n3iOdprxJSM8OJu7xosu8sSADP.jolZ53VGAETPiq8zlLBMZ+44gAQhDwxRKsDb4xcL2Z9Ch96uens1ZCSM0TvmOe09et4larl4LmIDHP.i9LiEt0st0HmX7TBBzjVwpETPATIkTBjKWNjKW9nNXQfg0+wLyLCd4kWPrXwvAGb.74yG73wCQEUTLiMokVZTas0FFXfAPqs1JJu7xQYkUFZpolTaYKtb4BarwF3gGd.QhDAmbxIL24NW3iO9LobbdRWmpvBKjJszRQlYlIjKWN5niNFkzB974Cqs1Z3hKt.u7xKL24NWniN5.kJUBYxjACMzPDSLw.gBEh5qudjYlYhhJpHDXfABO8zSvhEKb8qecTZokhZpoFTWc0gGzyBG4cL6YOa3s2dCwhEi4N24NhtUSZFy035HG4HGg5niNvblybf0VaML2byYb9qO4S9D57m+7H2byUMiOBLr8lLv.Cf0Va8HRCfKt3B3wiGxKu7vEtvEPUUUE5qu9P7wGOb0UWgJUpfEVXA3vgC10t1E5s2dg4laNBKrvPHgDBLxHiPiM1H91u8aQUUUEZrwFQmc1oZRi.F9XBr2d6Q.AD.72e+gPgBwrl0rvOO9vzzfFUiu3hKl14N2IxJqrft5pKr0VagDIRvu6286PO8zCBO7vYL33HPKszBFZngvRKsDt4laHv.CDBEJDc0UWH8zSGomd5ns1Zi440SO8vG9geHZs0VwINwIvBW3BQDQDA1+92OtxUtByyos1Zi.CLPrrksL3latg1aucTTQEgu8a+VFRz8t28FUefMa1vImbBO0S8THnfBBBEJD95quZTyCZjn5pqlV9xWtZ6vYlyblzl27lIEJTnlG6wkKWxXiMlDIRDsgMrAJkTRgJt3hoDRHAJrvBabuzCl27lGc1ydVZcqacjVZoEEP.APG9vGl191293ZNDGczQ5UdkWgt3EuHISlL5.G3.zhW7hIqrxJRO8zabKGGNbHgBERu1q8ZTokV5TBkrerhUspUMJ6WEZngR..AGbvj1ZqMoqt5R93iOz92+9oJpnBp3hKl10t1E4hKt7PsG1V25VoibjiPKXAKf..YpolRacqakRKszXbc0wKYfAFPKdwKljJUJUUUUQYjQFzZW6ZIKszRhOe9ixTHijr1Zqo28ce2oIO+ViMsoMQZqs1pM36pqtR4kWdzoO8oom4YdFJkTRg..RO8zoXiMVFiPhIXhG+jjfyctyQu0a8VjM1XCS9gGd3TxImLEczQ+PqCVrXQ73wib1YmocsqcQiDBOu268djyN6LSPG9fIQhDQG6XGaZxyu03PG5PLgNyHIyM2b5Mey2j..ps1ZoCdvCRAETPj4la9uHquORxO+7ixLyLoniNZ0ljmyblyCZ7R0R+k+xegN9wONEUTQw3r7.fzRKsH8zSOxFarghM1Xou5q9JB.H1XikLv.CTqNjHQBkYlYpwQdz3bFLu7xK3niNplmDNRzht90udJ5niFs0Va3G9ge.82e+psiKszRK3niNhvBKLviGO7W+q+Uln9D.HjPBAM2byn4laVMEuaokVfBEJPngFJbwEWfRkJY9e1ZqsH5nilE.PJojBkZpohu9q+ZFWk8t28tn6t6lQ44d6s2Q4ppVYkUH7vCeZkleTfsssswDfd3A9ltQFYzXt7Da1rIWbwEZG6XGLtjQ1YmsZlZfGOdz4O+4oW8Ue0QhGc0Rd3gGjToRoeJhTYRaYKaYTRLRKsznsrksPN4jSL5B8IexmPImbxjCN3fZsQCMzPZO6YOZbRczXQRIkD4u+9+PWFhMa1j6t6N8pu5qRolZppMAcpScJhGOdLOqO93CIWtbZoKcoiRmJ7SJN+6+8+dRlLYjt5pKS9N6ryTd4k2XN4mVZoQ6cu6k1wN1AoRkJZoKcoihzKQhDJiLxXZxyiR7G+i+Q0lDevzHgF7V25VojRJoQMwTc0USO2y8bpUlctycRIlXhjat4FSdZqs1LDLNb3P95quTgEVHsnEsHFm8Ras0lNzgNzDN4Wc0USW5RWhL0TSUS+KSLwDZu6cuSSbdTiKbgKPRjHYT6VRjHQze3O7GlvKSfu5q9J01MEOd7nbxIGZD2CEX3K5oku7kSqYMqgLyLyH.PVYkUzAO3AoSdxSp14DEYjQRW9xWdBIAxkKWMEp4vgCESLwLg29pSieCwG9geHYkUVQBDHfbyM2n0t10RG+3G+gNYr6cuaFI.rYylDKVLUQEUPKbgKjYIKWbwE5jm7jz27MeCSzkJPf.JhHhfToREITnPFoOVXgEzIO4Ienu2HhHBFRmu956XJUbZ7HBUVYkzN24No0rl07Khz.L7sqw7m+7Uaoo27MeS5bm6bjc1YGS9QGczTwEWLA.71u8ayr7kEVXAISlLZyadyj95qOyyGe7wOg2NG..e9m+4jUVYEMm4LG5i+3OdZhilFN7gOrZJsNiYLCJ+7ym1zl1DYrwFyrjxC5r5W3BWfYmS5pqtzl27loryNaxFargQBl2d68XdeF9ywy+7OOcvCdvoINZZnhJpfV+5WuZ5cLx8yiXwhY71PKszR07HvZpoFZiabiLKyM6YOaBP86zGd73MkS42I0dR3OGb3vAlYlYvRKsDBDH.5qu9X4Ke4HqrxhZt4lYbkBO7vCXiM1vTNgBExJ3fCF5niNXngFB23F2.RkJkVxRVBLwDS.vv2nXW9xWFi211mLhoLjmJpnB512913se62lUhIlHhJpnfs1ZKV5RWJRN4jUKRKb2c2G00DmiN5Hdxm7IAKVCm8YO6YYhvhQvUu5Uw0t10dD0ilF+lixKubJ93imr0VaoYLiYP96u+iRmCGczQlcNwiGuwM.797O+yIO8zSJt3hi4f8BO7vY1gFKVrn3hKtoLRdlTi2+8eeRrXwj95qOiIA3xkKYhIlPd4kWzV1xVnW9keY0NQYwhES4jSNSHAH2bykN7gOLs5UuZ0N6lQJ+TkKrRMNCi9eB9tu66PiM1nZQQ5.CL.5ryNwst0sPyM2L.fZwzkO93CrzRKG2570e8WmdwW7Ewsu8swst0sT6dBBX3eiJdPONbZnghhJpHZUqZUL+rA7vRrXwhRHgDFWoFJUp7gFa7rYylVyZVyTBIOS5wku7kocricPt5pqioiX8fom3IdhIbIqbxImIL3AM0TSoUrhU7K57dlLfI0KaA.l3D+Tm5TjLYxPAET.polZPe802ndVu81aXt4lOt0Uc0U2nhLBfguyB81auQngFJBN3fQ.ADvTBeyYRO4YDr5UuZV0TSMzS8TOEJszRQ80WOZokVP6s2N5niNP+82OBJnffqt553NwWas0x7273wC1ZqsPnPgvc2cGADP.XIKYISIHMifoLjG.nVbRoPgBpt5pCW+5WG23F2.81auHjPBYBKuwFaLBN3fgQFYDrzRKgHQhfXwhg+96+TJRyz3+Gn5pqdbc7qowzXZ7e.9+.3pFDxd8IKCv.....jTQNQjqBAlf" ],
					"embed" : 1,
					"id" : "obj-4",
					"maxclass" : "fpic",
					"numinlets" : 1,
					"numoutlets" : 1,
					"outlettype" : [ "jit_matrix" ],
					"patching_rect" : [ 898.5, 340.5, 90.0, 34.0 ],
					"pic" : "C:/Users/kyle/Documents/My Dropbox/Personal/Customization/Logos/kvgooglelogo1.png"
				}

			}
, 			{
				"box" : 				{
					"comment" : "vrec",
					"id" : "obj-111",
					"index" : 0,
					"maxclass" : "outlet",
					"numinlets" : 1,
					"numoutlets" : 0,
					"patching_rect" : [ 852.5, 345.0, 25.0, 25.0 ]
				}

			}
, 			{
				"box" : 				{
					"comment" : "vstop",
					"id" : "obj-110",
					"index" : 0,
					"maxclass" : "outlet",
					"numinlets" : 1,
					"numoutlets" : 0,
					"patching_rect" : [ 834.5, 345.0, 25.0, 25.0 ]
				}

			}
, 			{
				"box" : 				{
					"comment" : "vloop",
					"id" : "obj-109",
					"index" : 0,
					"maxclass" : "outlet",
					"numinlets" : 1,
					"numoutlets" : 0,
					"patching_rect" : [ 814.5, 345.0, 25.0, 25.0 ]
				}

			}
, 			{
				"box" : 				{
					"comment" : "vff",
					"id" : "obj-108",
					"index" : 0,
					"maxclass" : "outlet",
					"numinlets" : 1,
					"numoutlets" : 0,
					"patching_rect" : [ 796.5, 345.0, 25.0, 25.0 ]
				}

			}
, 			{
				"box" : 				{
					"comment" : "vplay",
					"id" : "obj-107",
					"index" : 0,
					"maxclass" : "outlet",
					"numinlets" : 1,
					"numoutlets" : 0,
					"patching_rect" : [ 776.5, 345.0, 25.0, 25.0 ]
				}

			}
, 			{
				"box" : 				{
					"comment" : "vrew",
					"id" : "obj-106",
					"index" : 0,
					"maxclass" : "outlet",
					"numinlets" : 1,
					"numoutlets" : 0,
					"patching_rect" : [ 757.5, 345.0, 25.0, 25.0 ]
				}

			}
, 			{
				"box" : 				{
					"comment" : "vbut9",
					"id" : "obj-105",
					"index" : 0,
					"maxclass" : "outlet",
					"numinlets" : 1,
					"numoutlets" : 0,
					"patching_rect" : [ 738.5, 345.0, 25.0, 25.0 ]
				}

			}
, 			{
				"box" : 				{
					"comment" : "vbut8",
					"id" : "obj-104",
					"index" : 0,
					"maxclass" : "outlet",
					"numinlets" : 1,
					"numoutlets" : 0,
					"patching_rect" : [ 719.5, 345.0, 25.0, 25.0 ]
				}

			}
, 			{
				"box" : 				{
					"comment" : "vbut7",
					"id" : "obj-103",
					"index" : 0,
					"maxclass" : "outlet",
					"numinlets" : 1,
					"numoutlets" : 0,
					"patching_rect" : [ 700.5, 345.0, 25.0, 25.0 ]
				}

			}
, 			{
				"box" : 				{
					"comment" : "vknob8-3",
					"id" : "obj-102",
					"index" : 0,
					"maxclass" : "outlet",
					"numinlets" : 1,
					"numoutlets" : 0,
					"patching_rect" : [ 681.5, 345.0, 25.0, 25.0 ]
				}

			}
, 			{
				"box" : 				{
					"comment" : "vknob8-2",
					"id" : "obj-101",
					"index" : 0,
					"maxclass" : "outlet",
					"numinlets" : 1,
					"numoutlets" : 0,
					"patching_rect" : [ 662.5, 345.0, 25.0, 25.0 ]
				}

			}
, 			{
				"box" : 				{
					"comment" : "vknob8-1",
					"id" : "obj-100",
					"index" : 0,
					"maxclass" : "outlet",
					"numinlets" : 1,
					"numoutlets" : 0,
					"patching_rect" : [ 643.5, 345.0, 25.0, 25.0 ]
				}

			}
, 			{
				"box" : 				{
					"comment" : "vknob7-3",
					"id" : "obj-99",
					"index" : 0,
					"maxclass" : "outlet",
					"numinlets" : 1,
					"numoutlets" : 0,
					"patching_rect" : [ 624.5, 345.0, 25.0, 25.0 ]
				}

			}
, 			{
				"box" : 				{
					"comment" : "vknob7-2",
					"id" : "obj-98",
					"index" : 0,
					"maxclass" : "outlet",
					"numinlets" : 1,
					"numoutlets" : 0,
					"patching_rect" : [ 606.5, 345.0, 25.0, 25.0 ]
				}

			}
, 			{
				"box" : 				{
					"comment" : "vknob7-1",
					"id" : "obj-97",
					"index" : 0,
					"maxclass" : "outlet",
					"numinlets" : 1,
					"numoutlets" : 0,
					"patching_rect" : [ 586.5, 345.0, 25.0, 25.0 ]
				}

			}
, 			{
				"box" : 				{
					"comment" : "vknob6-3",
					"id" : "obj-94",
					"index" : 0,
					"maxclass" : "outlet",
					"numinlets" : 1,
					"numoutlets" : 0,
					"patching_rect" : [ 567.5, 345.0, 25.0, 25.0 ]
				}

			}
, 			{
				"box" : 				{
					"comment" : "vknob6-2",
					"id" : "obj-89",
					"index" : 0,
					"maxclass" : "outlet",
					"numinlets" : 1,
					"numoutlets" : 0,
					"patching_rect" : [ 548.5, 345.0, 25.0, 25.0 ]
				}

			}
, 			{
				"box" : 				{
					"comment" : "vknob6-1",
					"id" : "obj-87",
					"index" : 0,
					"maxclass" : "outlet",
					"numinlets" : 1,
					"numoutlets" : 0,
					"patching_rect" : [ 529.5, 345.0, 25.0, 25.0 ]
				}

			}
, 			{
				"box" : 				{
					"comment" : "vknob5-3",
					"id" : "obj-80",
					"index" : 0,
					"maxclass" : "outlet",
					"numinlets" : 1,
					"numoutlets" : 0,
					"patching_rect" : [ 510.5, 345.0, 25.0, 25.0 ]
				}

			}
, 			{
				"box" : 				{
					"comment" : "vknob5-2",
					"id" : "obj-76",
					"index" : 0,
					"maxclass" : "outlet",
					"numinlets" : 1,
					"numoutlets" : 0,
					"patching_rect" : [ 491.5, 345.0, 25.0, 25.0 ]
				}

			}
, 			{
				"box" : 				{
					"comment" : "vknob5-1",
					"id" : "obj-75",
					"index" : 0,
					"maxclass" : "outlet",
					"numinlets" : 1,
					"numoutlets" : 0,
					"patching_rect" : [ 472.5, 345.0, 25.0, 25.0 ]
				}

			}
, 			{
				"box" : 				{
					"comment" : "vknob4-3",
					"id" : "obj-74",
					"index" : 0,
					"maxclass" : "outlet",
					"numinlets" : 1,
					"numoutlets" : 0,
					"patching_rect" : [ 454.5, 345.0, 25.0, 25.0 ]
				}

			}
, 			{
				"box" : 				{
					"comment" : "vknob4-2",
					"id" : "obj-73",
					"index" : 0,
					"maxclass" : "outlet",
					"numinlets" : 1,
					"numoutlets" : 0,
					"patching_rect" : [ 434.5, 345.0, 25.0, 25.0 ]
				}

			}
, 			{
				"box" : 				{
					"comment" : "vknob4-1",
					"id" : "obj-72",
					"index" : 0,
					"maxclass" : "outlet",
					"numinlets" : 1,
					"numoutlets" : 0,
					"patching_rect" : [ 415.5, 345.0, 25.0, 25.0 ]
				}

			}
, 			{
				"box" : 				{
					"comment" : "vknob3-3",
					"id" : "obj-71",
					"index" : 0,
					"maxclass" : "outlet",
					"numinlets" : 1,
					"numoutlets" : 0,
					"patching_rect" : [ 396.5, 345.0, 25.0, 25.0 ]
				}

			}
, 			{
				"box" : 				{
					"comment" : "vknob3-2",
					"id" : "obj-69",
					"index" : 0,
					"maxclass" : "outlet",
					"numinlets" : 1,
					"numoutlets" : 0,
					"patching_rect" : [ 377.5, 345.0, 25.0, 25.0 ]
				}

			}
, 			{
				"box" : 				{
					"comment" : "vknob3-1",
					"id" : "obj-67",
					"index" : 0,
					"maxclass" : "outlet",
					"numinlets" : 1,
					"numoutlets" : 0,
					"patching_rect" : [ 358.5, 345.0, 25.0, 25.0 ]
				}

			}
, 			{
				"box" : 				{
					"comment" : "vknob2-3",
					"id" : "obj-66",
					"index" : 0,
					"maxclass" : "outlet",
					"numinlets" : 1,
					"numoutlets" : 0,
					"patching_rect" : [ 339.5, 345.0, 25.0, 25.0 ]
				}

			}
, 			{
				"box" : 				{
					"comment" : "vknob2-2",
					"id" : "obj-64",
					"index" : 0,
					"maxclass" : "outlet",
					"numinlets" : 1,
					"numoutlets" : 0,
					"patching_rect" : [ 320.5, 345.0, 25.0, 25.0 ]
				}

			}
, 			{
				"box" : 				{
					"comment" : "vknob2-1",
					"id" : "obj-63",
					"index" : 0,
					"maxclass" : "outlet",
					"numinlets" : 1,
					"numoutlets" : 0,
					"patching_rect" : [ 301.5, 345.0, 25.0, 25.0 ]
				}

			}
, 			{
				"box" : 				{
					"comment" : "vknob1-3",
					"id" : "obj-62",
					"index" : 0,
					"maxclass" : "outlet",
					"numinlets" : 1,
					"numoutlets" : 0,
					"patching_rect" : [ 282.5, 345.0, 25.0, 25.0 ]
				}

			}
, 			{
				"box" : 				{
					"comment" : "vknob1-2",
					"id" : "obj-52",
					"index" : 0,
					"maxclass" : "outlet",
					"numinlets" : 1,
					"numoutlets" : 0,
					"patching_rect" : [ 263.5, 345.0, 25.0, 25.0 ]
				}

			}
, 			{
				"box" : 				{
					"comment" : "vknob1-1",
					"id" : "obj-43",
					"index" : 0,
					"maxclass" : "outlet",
					"numinlets" : 1,
					"numoutlets" : 0,
					"patching_rect" : [ 244.5, 345.0, 25.0, 25.0 ]
				}

			}
, 			{
				"box" : 				{
					"comment" : "vslide9",
					"id" : "obj-42",
					"index" : 0,
					"maxclass" : "outlet",
					"numinlets" : 1,
					"numoutlets" : 0,
					"patching_rect" : [ 225.5, 345.0, 25.0, 25.0 ]
				}

			}
, 			{
				"box" : 				{
					"comment" : "vslide8",
					"id" : "obj-41",
					"index" : 0,
					"maxclass" : "outlet",
					"numinlets" : 1,
					"numoutlets" : 0,
					"patching_rect" : [ 206.5, 345.0, 25.0, 25.0 ]
				}

			}
, 			{
				"box" : 				{
					"comment" : "vslide7",
					"id" : "obj-40",
					"index" : 0,
					"maxclass" : "outlet",
					"numinlets" : 1,
					"numoutlets" : 0,
					"patching_rect" : [ 187.5, 345.0, 25.0, 25.0 ]
				}

			}
, 			{
				"box" : 				{
					"comment" : "vslide6",
					"id" : "obj-39",
					"index" : 0,
					"maxclass" : "outlet",
					"numinlets" : 1,
					"numoutlets" : 0,
					"patching_rect" : [ 168.5, 345.0, 25.0, 25.0 ]
				}

			}
, 			{
				"box" : 				{
					"comment" : "vslide5",
					"id" : "obj-32",
					"index" : 0,
					"maxclass" : "outlet",
					"numinlets" : 1,
					"numoutlets" : 0,
					"patching_rect" : [ 149.5, 345.0, 25.0, 25.0 ]
				}

			}
, 			{
				"box" : 				{
					"comment" : "vslide4",
					"id" : "obj-26",
					"index" : 0,
					"maxclass" : "outlet",
					"numinlets" : 1,
					"numoutlets" : 0,
					"patching_rect" : [ 130.5, 345.0, 25.0, 25.0 ]
				}

			}
, 			{
				"box" : 				{
					"comment" : "vslide3",
					"id" : "obj-25",
					"index" : 0,
					"maxclass" : "outlet",
					"numinlets" : 1,
					"numoutlets" : 0,
					"patching_rect" : [ 111.5, 345.0, 25.0, 25.0 ]
				}

			}
, 			{
				"box" : 				{
					"comment" : "vslide2",
					"id" : "obj-24",
					"index" : 0,
					"maxclass" : "outlet",
					"numinlets" : 1,
					"numoutlets" : 0,
					"patching_rect" : [ 92.5, 345.0, 25.0, 25.0 ]
				}

			}
, 			{
				"box" : 				{
					"comment" : "vslide1",
					"id" : "obj-23",
					"index" : 0,
					"maxclass" : "outlet",
					"numinlets" : 1,
					"numoutlets" : 0,
					"patching_rect" : [ 73.5, 345.0, 25.0, 25.0 ]
				}

			}
, 			{
				"box" : 				{
					"checkedcolor" : [ 0.439216, 0.74902, 0.254902, 1.0 ],
					"id" : "obj-20",
					"maxclass" : "toggle",
					"numinlets" : 1,
					"numoutlets" : 1,
					"outlettype" : [ "int" ],
					"parameter_enable" : 0,
					"patching_rect" : [ 624.5, 847.0, 20.0, 20.0 ]
				}

			}
, 			{
				"box" : 				{
					"id" : "obj-10",
					"int" : 1,
					"maxclass" : "gswitch2",
					"numinlets" : 2,
					"numoutlets" : 2,
					"outlettype" : [ "", "" ],
					"parameter_enable" : 0,
					"patching_rect" : [ 58.5, 99.0, 39.0, 32.0 ]
				}

			}
, 			{
				"box" : 				{
					"fontname" : "Arial",
					"fontsize" : 12.0,
					"id" : "obj-11",
					"maxclass" : "newobj",
					"numinlets" : 2,
					"numoutlets" : 1,
					"outlettype" : [ "int" ],
					"patching_rect" : [ 89.5, 69.0, 35.0, 22.0 ],
					"text" : "== 1"
				}

			}
, 			{
				"box" : 				{
					"checkedcolor" : [ 0.439216, 0.74902, 0.254902, 1.0 ],
					"id" : "obj-19",
					"maxclass" : "toggle",
					"numinlets" : 1,
					"numoutlets" : 1,
					"outlettype" : [ "int" ],
					"parameter_enable" : 0,
					"patching_rect" : [ 187.5, 847.0, 20.0, 20.0 ]
				}

			}
, 			{
				"box" : 				{
					"fontname" : "Arial",
					"fontsize" : 12.0,
					"id" : "obj-95",
					"maxclass" : "newobj",
					"numinlets" : 2,
					"numoutlets" : 2,
					"outlettype" : [ "bang", "" ],
					"patching_rect" : [ 605.5, 782.0, 36.0, 22.0 ],
					"text" : "sel 0"
				}

			}
, 			{
				"box" : 				{
					"fontname" : "Arial",
					"fontsize" : 12.0,
					"id" : "obj-96",
					"maxclass" : "newobj",
					"numinlets" : 2,
					"numoutlets" : 2,
					"outlettype" : [ "bang", "" ],
					"patching_rect" : [ 586.5, 812.0, 36.0, 22.0 ],
					"text" : "sel 0"
				}

			}
, 			{
				"box" : 				{
					"fontname" : "Arial",
					"fontsize" : 12.0,
					"id" : "obj-91",
					"maxclass" : "newobj",
					"numinlets" : 2,
					"numoutlets" : 2,
					"outlettype" : [ "bang", "" ],
					"patching_rect" : [ 567.5, 752.0, 36.0, 22.0 ],
					"text" : "sel 0"
				}

			}
, 			{
				"box" : 				{
					"fontname" : "Arial",
					"fontsize" : 12.0,
					"id" : "obj-92",
					"maxclass" : "newobj",
					"numinlets" : 2,
					"numoutlets" : 2,
					"outlettype" : [ "bang", "" ],
					"patching_rect" : [ 548.5, 782.0, 36.0, 22.0 ],
					"text" : "sel 0"
				}

			}
, 			{
				"box" : 				{
					"fontname" : "Arial",
					"fontsize" : 12.0,
					"id" : "obj-93",
					"maxclass" : "newobj",
					"numinlets" : 2,
					"numoutlets" : 2,
					"outlettype" : [ "bang", "" ],
					"patching_rect" : [ 529.5, 812.0, 36.0, 22.0 ],
					"text" : "sel 0"
				}

			}
, 			{
				"box" : 				{
					"blinkcolor" : [ 0.439216, 0.74902, 0.254902, 1.0 ],
					"id" : "obj-90",
					"maxclass" : "button",
					"numinlets" : 1,
					"numoutlets" : 1,
					"outlettype" : [ "bang" ],
					"parameter_enable" : 0,
					"patching_rect" : [ 568.5, 847.0, 20.0, 20.0 ]
				}

			}
, 			{
				"box" : 				{
					"blinkcolor" : [ 0.439216, 0.74902, 0.254902, 1.0 ],
					"id" : "obj-88",
					"maxclass" : "button",
					"numinlets" : 1,
					"numoutlets" : 1,
					"outlettype" : [ "bang" ],
					"parameter_enable" : 0,
					"patching_rect" : [ 529.5, 847.0, 20.0, 20.0 ]
				}

			}
, 			{
				"box" : 				{
					"fontname" : "Arial",
					"fontsize" : 12.0,
					"id" : "obj-84",
					"maxclass" : "newobj",
					"numinlets" : 2,
					"numoutlets" : 2,
					"outlettype" : [ "bang", "" ],
					"patching_rect" : [ 510.5, 752.0, 36.0, 22.0 ],
					"text" : "sel 0"
				}

			}
, 			{
				"box" : 				{
					"fontname" : "Arial",
					"fontsize" : 12.0,
					"id" : "obj-85",
					"maxclass" : "newobj",
					"numinlets" : 2,
					"numoutlets" : 2,
					"outlettype" : [ "bang", "" ],
					"patching_rect" : [ 491.5, 782.0, 36.0, 22.0 ],
					"text" : "sel 0"
				}

			}
, 			{
				"box" : 				{
					"fontname" : "Arial",
					"fontsize" : 12.0,
					"id" : "obj-86",
					"maxclass" : "newobj",
					"numinlets" : 2,
					"numoutlets" : 2,
					"outlettype" : [ "bang", "" ],
					"patching_rect" : [ 472.5, 812.0, 36.0, 22.0 ],
					"text" : "sel 0"
				}

			}
, 			{
				"box" : 				{
					"fontname" : "Arial",
					"fontsize" : 12.0,
					"id" : "obj-81",
					"maxclass" : "newobj",
					"numinlets" : 2,
					"numoutlets" : 2,
					"outlettype" : [ "bang", "" ],
					"patching_rect" : [ 453.5, 752.0, 36.0, 22.0 ],
					"text" : "sel 0"
				}

			}
, 			{
				"box" : 				{
					"fontname" : "Arial",
					"fontsize" : 12.0,
					"id" : "obj-82",
					"maxclass" : "newobj",
					"numinlets" : 2,
					"numoutlets" : 2,
					"outlettype" : [ "bang", "" ],
					"patching_rect" : [ 434.5, 782.0, 36.0, 22.0 ],
					"text" : "sel 0"
				}

			}
, 			{
				"box" : 				{
					"fontname" : "Arial",
					"fontsize" : 12.0,
					"id" : "obj-83",
					"maxclass" : "newobj",
					"numinlets" : 2,
					"numoutlets" : 2,
					"outlettype" : [ "bang", "" ],
					"patching_rect" : [ 415.5, 812.0, 36.0, 22.0 ],
					"text" : "sel 0"
				}

			}
, 			{
				"box" : 				{
					"fontname" : "Arial",
					"fontsize" : 12.0,
					"id" : "obj-79",
					"maxclass" : "newobj",
					"numinlets" : 2,
					"numoutlets" : 2,
					"outlettype" : [ "bang", "" ],
					"patching_rect" : [ 396.5, 752.0, 36.0, 22.0 ],
					"text" : "sel 0"
				}

			}
, 			{
				"box" : 				{
					"fontname" : "Arial",
					"fontsize" : 12.0,
					"id" : "obj-78",
					"maxclass" : "newobj",
					"numinlets" : 2,
					"numoutlets" : 2,
					"outlettype" : [ "bang", "" ],
					"patching_rect" : [ 377.5, 782.0, 36.0, 22.0 ],
					"text" : "sel 0"
				}

			}
, 			{
				"box" : 				{
					"fontname" : "Arial",
					"fontsize" : 12.0,
					"id" : "obj-77",
					"maxclass" : "newobj",
					"numinlets" : 2,
					"numoutlets" : 2,
					"outlettype" : [ "bang", "" ],
					"patching_rect" : [ 358.5, 812.0, 36.0, 22.0 ],
					"text" : "sel 0"
				}

			}
, 			{
				"box" : 				{
					"blinkcolor" : [ 0.439216, 0.74902, 0.254902, 1.0 ],
					"id" : "obj-70",
					"maxclass" : "button",
					"numinlets" : 1,
					"numoutlets" : 1,
					"outlettype" : [ "bang" ],
					"parameter_enable" : 0,
					"patching_rect" : [ 606.5, 847.0, 20.0, 20.0 ]
				}

			}
, 			{
				"box" : 				{
					"blinkcolor" : [ 0.439216, 0.74902, 0.254902, 1.0 ],
					"id" : "obj-68",
					"maxclass" : "button",
					"numinlets" : 1,
					"numoutlets" : 1,
					"outlettype" : [ "bang" ],
					"parameter_enable" : 0,
					"patching_rect" : [ 586.5, 847.0, 20.0, 20.0 ]
				}

			}
, 			{
				"box" : 				{
					"blinkcolor" : [ 0.439216, 0.74902, 0.254902, 1.0 ],
					"id" : "obj-65",
					"maxclass" : "button",
					"numinlets" : 1,
					"numoutlets" : 1,
					"outlettype" : [ "bang" ],
					"parameter_enable" : 0,
					"patching_rect" : [ 548.5, 847.0, 20.0, 20.0 ]
				}

			}
, 			{
				"box" : 				{
					"blinkcolor" : [ 0.439216, 0.74902, 0.254902, 1.0 ],
					"id" : "obj-61",
					"maxclass" : "button",
					"numinlets" : 1,
					"numoutlets" : 1,
					"outlettype" : [ "bang" ],
					"parameter_enable" : 0,
					"patching_rect" : [ 510.5, 847.0, 20.0, 20.0 ]
				}

			}
, 			{
				"box" : 				{
					"blinkcolor" : [ 0.439216, 0.74902, 0.254902, 1.0 ],
					"id" : "obj-60",
					"maxclass" : "button",
					"numinlets" : 1,
					"numoutlets" : 1,
					"outlettype" : [ "bang" ],
					"parameter_enable" : 0,
					"patching_rect" : [ 491.5, 847.0, 20.0, 20.0 ]
				}

			}
, 			{
				"box" : 				{
					"blinkcolor" : [ 0.439216, 0.74902, 0.254902, 1.0 ],
					"id" : "obj-59",
					"maxclass" : "button",
					"numinlets" : 1,
					"numoutlets" : 1,
					"outlettype" : [ "bang" ],
					"parameter_enable" : 0,
					"patching_rect" : [ 472.5, 847.0, 20.0, 20.0 ]
				}

			}
, 			{
				"box" : 				{
					"blinkcolor" : [ 0.439216, 0.74902, 0.254902, 1.0 ],
					"id" : "obj-58",
					"maxclass" : "button",
					"numinlets" : 1,
					"numoutlets" : 1,
					"outlettype" : [ "bang" ],
					"parameter_enable" : 0,
					"patching_rect" : [ 453.5, 847.0, 20.0, 20.0 ]
				}

			}
, 			{
				"box" : 				{
					"blinkcolor" : [ 0.439216, 0.74902, 0.254902, 1.0 ],
					"id" : "obj-57",
					"maxclass" : "button",
					"numinlets" : 1,
					"numoutlets" : 1,
					"outlettype" : [ "bang" ],
					"parameter_enable" : 0,
					"patching_rect" : [ 434.5, 847.0, 20.0, 20.0 ]
				}

			}
, 			{
				"box" : 				{
					"blinkcolor" : [ 0.439216, 0.74902, 0.254902, 1.0 ],
					"id" : "obj-56",
					"maxclass" : "button",
					"numinlets" : 1,
					"numoutlets" : 1,
					"outlettype" : [ "bang" ],
					"parameter_enable" : 0,
					"patching_rect" : [ 415.5, 847.0, 20.0, 20.0 ]
				}

			}
, 			{
				"box" : 				{
					"blinkcolor" : [ 0.439216, 0.74902, 0.254902, 1.0 ],
					"id" : "obj-55",
					"maxclass" : "button",
					"numinlets" : 1,
					"numoutlets" : 1,
					"outlettype" : [ "bang" ],
					"parameter_enable" : 0,
					"patching_rect" : [ 396.5, 847.0, 20.0, 20.0 ]
				}

			}
, 			{
				"box" : 				{
					"blinkcolor" : [ 0.439216, 0.74902, 0.254902, 1.0 ],
					"id" : "obj-54",
					"maxclass" : "button",
					"numinlets" : 1,
					"numoutlets" : 1,
					"outlettype" : [ "bang" ],
					"parameter_enable" : 0,
					"patching_rect" : [ 378.5, 847.0, 20.0, 20.0 ]
				}

			}
, 			{
				"box" : 				{
					"blinkcolor" : [ 0.439216, 0.74902, 0.254902, 1.0 ],
					"id" : "obj-53",
					"maxclass" : "button",
					"numinlets" : 1,
					"numoutlets" : 1,
					"outlettype" : [ "bang" ],
					"parameter_enable" : 0,
					"patching_rect" : [ 358.5, 847.0, 20.0, 20.0 ]
				}

			}
, 			{
				"box" : 				{
					"checkedcolor" : [ 0.439216, 0.74902, 0.254902, 1.0 ],
					"id" : "obj-51",
					"maxclass" : "toggle",
					"numinlets" : 1,
					"numoutlets" : 1,
					"outlettype" : [ "int" ],
					"parameter_enable" : 0,
					"patching_rect" : [ 339.5, 847.0, 20.0, 20.0 ]
				}

			}
, 			{
				"box" : 				{
					"checkedcolor" : [ 0.439216, 0.74902, 0.254902, 1.0 ],
					"id" : "obj-50",
					"maxclass" : "toggle",
					"numinlets" : 1,
					"numoutlets" : 1,
					"outlettype" : [ "int" ],
					"parameter_enable" : 0,
					"patching_rect" : [ 320.5, 847.0, 20.0, 20.0 ]
				}

			}
, 			{
				"box" : 				{
					"checkedcolor" : [ 0.439216, 0.74902, 0.254902, 1.0 ],
					"id" : "obj-49",
					"maxclass" : "toggle",
					"numinlets" : 1,
					"numoutlets" : 1,
					"outlettype" : [ "int" ],
					"parameter_enable" : 0,
					"patching_rect" : [ 301.5, 847.0, 20.0, 20.0 ]
				}

			}
, 			{
				"box" : 				{
					"checkedcolor" : [ 0.439216, 0.74902, 0.254902, 1.0 ],
					"id" : "obj-48",
					"maxclass" : "toggle",
					"numinlets" : 1,
					"numoutlets" : 1,
					"outlettype" : [ "int" ],
					"parameter_enable" : 0,
					"patching_rect" : [ 282.5, 847.0, 20.0, 20.0 ]
				}

			}
, 			{
				"box" : 				{
					"checkedcolor" : [ 0.439216, 0.74902, 0.254902, 1.0 ],
					"id" : "obj-47",
					"maxclass" : "toggle",
					"numinlets" : 1,
					"numoutlets" : 1,
					"outlettype" : [ "int" ],
					"parameter_enable" : 0,
					"patching_rect" : [ 263.5, 847.0, 20.0, 20.0 ]
				}

			}
, 			{
				"box" : 				{
					"checkedcolor" : [ 0.439216, 0.74902, 0.254902, 1.0 ],
					"id" : "obj-46",
					"maxclass" : "toggle",
					"numinlets" : 1,
					"numoutlets" : 1,
					"outlettype" : [ "int" ],
					"parameter_enable" : 0,
					"patching_rect" : [ 244.5, 847.0, 20.0, 20.0 ]
				}

			}
, 			{
				"box" : 				{
					"checkedcolor" : [ 0.439216, 0.74902, 0.254902, 1.0 ],
					"id" : "obj-45",
					"maxclass" : "toggle",
					"numinlets" : 1,
					"numoutlets" : 1,
					"outlettype" : [ "int" ],
					"parameter_enable" : 0,
					"patching_rect" : [ 226.5, 847.0, 20.0, 20.0 ]
				}

			}
, 			{
				"box" : 				{
					"checkedcolor" : [ 0.439216, 0.74902, 0.254902, 1.0 ],
					"id" : "obj-44",
					"maxclass" : "toggle",
					"numinlets" : 1,
					"numoutlets" : 1,
					"outlettype" : [ "int" ],
					"parameter_enable" : 0,
					"patching_rect" : [ 206.5, 847.0, 20.0, 20.0 ]
				}

			}
, 			{
				"box" : 				{
					"id" : "obj-36",
					"maxclass" : "dial",
					"needlecolor" : [ 0.439216, 0.74902, 0.254902, 1.0 ],
					"numinlets" : 1,
					"numoutlets" : 1,
					"outlettype" : [ "float" ],
					"parameter_enable" : 0,
					"patching_rect" : [ 396.5, 165.0, 40.0, 40.0 ],
					"presentation" : 1,
					"presentation_rect" : [ 104.75, 9.0, 24.0, 24.0 ]
				}

			}
, 			{
				"box" : 				{
					"id" : "obj-37",
					"maxclass" : "dial",
					"needlecolor" : [ 0.439216, 0.74902, 0.254902, 1.0 ],
					"numinlets" : 1,
					"numoutlets" : 1,
					"outlettype" : [ "float" ],
					"parameter_enable" : 0,
					"patching_rect" : [ 377.5, 210.0, 40.0, 40.0 ],
					"presentation" : 1,
					"presentation_rect" : [ 104.75, 37.0, 24.0, 24.0 ]
				}

			}
, 			{
				"box" : 				{
					"id" : "obj-38",
					"maxclass" : "dial",
					"needlecolor" : [ 0.439216, 0.74902, 0.254902, 1.0 ],
					"numinlets" : 1,
					"numoutlets" : 1,
					"outlettype" : [ "float" ],
					"parameter_enable" : 0,
					"patching_rect" : [ 358.5, 255.0, 40.0, 40.0 ],
					"presentation" : 1,
					"presentation_rect" : [ 104.75, 65.0, 24.0, 24.0 ]
				}

			}
, 			{
				"box" : 				{
					"id" : "obj-33",
					"maxclass" : "dial",
					"needlecolor" : [ 0.439216, 0.74902, 0.254902, 1.0 ],
					"numinlets" : 1,
					"numoutlets" : 1,
					"outlettype" : [ "float" ],
					"parameter_enable" : 0,
					"patching_rect" : [ 339.5, 165.0, 40.0, 40.0 ],
					"presentation" : 1,
					"presentation_rect" : [ 56.75, 9.0, 24.0, 24.0 ]
				}

			}
, 			{
				"box" : 				{
					"id" : "obj-34",
					"maxclass" : "dial",
					"needlecolor" : [ 0.439216, 0.74902, 0.254902, 1.0 ],
					"numinlets" : 1,
					"numoutlets" : 1,
					"outlettype" : [ "float" ],
					"parameter_enable" : 0,
					"patching_rect" : [ 320.5, 210.0, 40.0, 40.0 ],
					"presentation" : 1,
					"presentation_rect" : [ 56.75, 37.0, 24.0, 24.0 ]
				}

			}
, 			{
				"box" : 				{
					"id" : "obj-35",
					"maxclass" : "dial",
					"needlecolor" : [ 0.439216, 0.74902, 0.254902, 1.0 ],
					"numinlets" : 1,
					"numoutlets" : 1,
					"outlettype" : [ "float" ],
					"parameter_enable" : 0,
					"patching_rect" : [ 301.5, 255.0, 40.0, 40.0 ],
					"presentation" : 1,
					"presentation_rect" : [ 56.75, 65.0, 24.0, 24.0 ]
				}

			}
, 			{
				"box" : 				{
					"id" : "obj-31",
					"maxclass" : "dial",
					"needlecolor" : [ 0.439216, 0.74902, 0.254902, 1.0 ],
					"numinlets" : 1,
					"numoutlets" : 1,
					"outlettype" : [ "float" ],
					"parameter_enable" : 0,
					"patching_rect" : [ 282.5, 165.0, 40.0, 40.0 ],
					"presentation" : 1,
					"presentation_rect" : [ 8.75, 9.0, 24.0, 24.0 ]
				}

			}
, 			{
				"box" : 				{
					"id" : "obj-30",
					"maxclass" : "dial",
					"needlecolor" : [ 0.439216, 0.74902, 0.254902, 1.0 ],
					"numinlets" : 1,
					"numoutlets" : 1,
					"outlettype" : [ "float" ],
					"parameter_enable" : 0,
					"patching_rect" : [ 263.5, 210.0, 40.0, 40.0 ],
					"presentation" : 1,
					"presentation_rect" : [ 8.75, 37.0, 24.0, 24.0 ]
				}

			}
, 			{
				"box" : 				{
					"id" : "obj-29",
					"maxclass" : "dial",
					"needlecolor" : [ 0.439216, 0.74902, 0.254902, 1.0 ],
					"numinlets" : 1,
					"numoutlets" : 1,
					"outlettype" : [ "float" ],
					"parameter_enable" : 0,
					"patching_rect" : [ 244.5, 255.0, 40.0, 40.0 ],
					"presentation" : 1,
					"presentation_rect" : [ 8.75, 65.0, 24.0, 24.0 ]
				}

			}
, 			{
				"box" : 				{
					"id" : "obj-28",
					"knobcolor" : [ 0.439216, 0.74902, 0.254902, 1.0 ],
					"maxclass" : "slider",
					"numinlets" : 1,
					"numoutlets" : 1,
					"outlettype" : [ "" ],
					"parameter_enable" : 0,
					"patching_rect" : [ 226.0, 165.0, 15.0, 140.0 ],
					"presentation" : 1,
					"presentation_rect" : [ 392.75, 97.0, 24.0, 140.0 ]
				}

			}
, 			{
				"box" : 				{
					"id" : "obj-27",
					"knobcolor" : [ 0.439216, 0.74902, 0.254902, 1.0 ],
					"maxclass" : "slider",
					"numinlets" : 1,
					"numoutlets" : 1,
					"outlettype" : [ "" ],
					"parameter_enable" : 0,
					"patching_rect" : [ 207.0, 165.0, 15.0, 140.0 ],
					"presentation" : 1,
					"presentation_rect" : [ 344.75, 97.0, 24.0, 140.0 ]
				}

			}
, 			{
				"box" : 				{
					"id" : "obj-18",
					"knobcolor" : [ 0.439216, 0.74902, 0.254902, 1.0 ],
					"maxclass" : "slider",
					"numinlets" : 1,
					"numoutlets" : 1,
					"outlettype" : [ "" ],
					"parameter_enable" : 0,
					"patching_rect" : [ 188.0, 165.0, 15.0, 140.0 ],
					"presentation" : 1,
					"presentation_rect" : [ 296.75, 97.0, 24.0, 140.0 ]
				}

			}
, 			{
				"box" : 				{
					"id" : "obj-17",
					"knobcolor" : [ 0.439216, 0.74902, 0.254902, 1.0 ],
					"maxclass" : "slider",
					"numinlets" : 1,
					"numoutlets" : 1,
					"outlettype" : [ "" ],
					"parameter_enable" : 0,
					"patching_rect" : [ 169.0, 165.0, 15.0, 140.0 ],
					"presentation" : 1,
					"presentation_rect" : [ 248.75, 97.0, 24.0, 140.0 ]
				}

			}
, 			{
				"box" : 				{
					"id" : "obj-16",
					"knobcolor" : [ 0.439216, 0.74902, 0.254902, 1.0 ],
					"maxclass" : "slider",
					"numinlets" : 1,
					"numoutlets" : 1,
					"outlettype" : [ "" ],
					"parameter_enable" : 0,
					"patching_rect" : [ 150.0, 165.0, 15.0, 140.0 ],
					"presentation" : 1,
					"presentation_rect" : [ 200.75, 97.0, 24.0, 140.0 ]
				}

			}
, 			{
				"box" : 				{
					"id" : "obj-15",
					"knobcolor" : [ 0.439216, 0.74902, 0.254902, 1.0 ],
					"maxclass" : "slider",
					"numinlets" : 1,
					"numoutlets" : 1,
					"outlettype" : [ "" ],
					"parameter_enable" : 0,
					"patching_rect" : [ 131.0, 165.0, 15.0, 140.0 ],
					"presentation" : 1,
					"presentation_rect" : [ 152.75, 97.0, 24.0, 140.0 ]
				}

			}
, 			{
				"box" : 				{
					"id" : "obj-14",
					"knobcolor" : [ 0.439216, 0.74902, 0.254902, 1.0 ],
					"maxclass" : "slider",
					"numinlets" : 1,
					"numoutlets" : 1,
					"outlettype" : [ "" ],
					"parameter_enable" : 0,
					"patching_rect" : [ 112.0, 165.0, 15.0, 140.0 ],
					"presentation" : 1,
					"presentation_rect" : [ 104.75, 97.0, 24.0, 140.0 ]
				}

			}
, 			{
				"box" : 				{
					"id" : "obj-13",
					"knobcolor" : [ 0.439216, 0.74902, 0.254902, 1.0 ],
					"maxclass" : "slider",
					"numinlets" : 1,
					"numoutlets" : 1,
					"outlettype" : [ "" ],
					"parameter_enable" : 0,
					"patching_rect" : [ 93.0, 165.0, 15.0, 140.0 ],
					"presentation" : 1,
					"presentation_rect" : [ 56.75, 97.0, 24.0, 140.0 ]
				}

			}
, 			{
				"box" : 				{
					"id" : "obj-9",
					"knobcolor" : [ 0.439216, 0.74902, 0.254902, 1.0 ],
					"maxclass" : "slider",
					"numinlets" : 1,
					"numoutlets" : 1,
					"outlettype" : [ "" ],
					"parameter_enable" : 0,
					"patching_rect" : [ 74.0, 165.0, 15.0, 140.0 ],
					"presentation" : 1,
					"presentation_rect" : [ 8.75, 97.0, 24.0, 140.0 ]
				}

			}
, 			{
				"box" : 				{
					"fontname" : "Arial",
					"fontsize" : 12.0,
					"id" : "obj-3",
					"maxclass" : "newobj",
					"numinlets" : 34,
					"numoutlets" : 34,
					"outlettype" : [ "", "", "", "", "", "", "", "", "", "", "", "", "", "", "", "", "", "", "", "", "", "", "", "", "", "", "", "", "", "", "", "", "", "" ],
					"patching_rect" : [ 78.5, 133.0, 588.0, 22.0 ],
					"text" : "route 19 23 27 31 49 53 57 61 62 16 17 18 20 21 22 24 25 26 28 29 30 46 47 48 50 51 52 54 55 56 58 59 60"
				}

			}
, 			{
				"box" : 				{
					"fontname" : "Arial",
					"fontsize" : 12.0,
					"id" : "obj-2",
					"maxclass" : "newobj",
					"numinlets" : 1,
					"numoutlets" : 8,
					"outlettype" : [ "", "", "", "int", "int", "", "int", "" ],
					"patching_rect" : [ 13.5, 45.0, 100.0, 22.0 ],
					"text" : "midiparse"
				}

			}
, 			{
				"box" : 				{
					"fontname" : "Arial",
					"fontsize" : 12.0,
					"id" : "obj-1",
					"maxclass" : "newobj",
					"numinlets" : 1,
					"numoutlets" : 1,
					"outlettype" : [ "int" ],
					"patching_rect" : [ 13.5, 15.0, 42.0, 22.0 ],
					"presentation" : 1,
					"presentation_rect" : [ 8.75, 263.0, 42.0, 22.0 ],
					"text" : "midiin"
				}

			}
 ],
		"lines" : [ 			{
				"patchline" : 				{
					"destination" : [ "obj-2", 0 ],
					"source" : [ "obj-1", 0 ]
				}

			}
, 			{
				"patchline" : 				{
					"destination" : [ "obj-3", 0 ],
					"source" : [ "obj-10", 1 ]
				}

			}
, 			{
				"patchline" : 				{
					"destination" : [ "obj-10", 0 ],
					"source" : [ "obj-11", 0 ]
				}

			}
, 			{
				"patchline" : 				{
					"destination" : [ "obj-73", 0 ],
					"source" : [ "obj-112", 0 ]
				}

			}
, 			{
				"patchline" : 				{
					"destination" : [ "obj-74", 0 ],
					"source" : [ "obj-113", 0 ]
				}

			}
, 			{
				"patchline" : 				{
					"destination" : [ "obj-100", 0 ],
					"source" : [ "obj-117", 0 ]
				}

			}
, 			{
				"patchline" : 				{
					"destination" : [ "obj-101", 0 ],
					"source" : [ "obj-118", 0 ]
				}

			}
, 			{
				"patchline" : 				{
					"destination" : [ "obj-102", 0 ],
					"source" : [ "obj-119", 0 ]
				}

			}
, 			{
				"patchline" : 				{
					"destination" : [ "obj-76", 0 ],
					"source" : [ "obj-12", 0 ]
				}

			}
, 			{
				"patchline" : 				{
					"destination" : [ "obj-97", 0 ],
					"source" : [ "obj-120", 0 ]
				}

			}
, 			{
				"patchline" : 				{
					"destination" : [ "obj-98", 0 ],
					"source" : [ "obj-121", 0 ]
				}

			}
, 			{
				"patchline" : 				{
					"destination" : [ "obj-99", 0 ],
					"source" : [ "obj-122", 0 ]
				}

			}
, 			{
				"patchline" : 				{
					"destination" : [ "obj-24", 0 ],
					"source" : [ "obj-13", 0 ]
				}

			}
, 			{
				"patchline" : 				{
					"destination" : [ "obj-25", 0 ],
					"source" : [ "obj-14", 0 ]
				}

			}
, 			{
				"patchline" : 				{
					"destination" : [ "obj-26", 0 ],
					"source" : [ "obj-15", 0 ]
				}

			}
, 			{
				"patchline" : 				{
					"destination" : [ "obj-32", 0 ],
					"source" : [ "obj-16", 0 ]
				}

			}
, 			{
				"patchline" : 				{
					"destination" : [ "obj-39", 0 ],
					"source" : [ "obj-17", 0 ]
				}

			}
, 			{
				"patchline" : 				{
					"destination" : [ "obj-40", 0 ],
					"source" : [ "obj-18", 0 ]
				}

			}
, 			{
				"patchline" : 				{
					"destination" : [ "obj-10", 1 ],
					"source" : [ "obj-2", 2 ]
				}

			}
, 			{
				"patchline" : 				{
					"destination" : [ "obj-11", 0 ],
					"source" : [ "obj-2", 6 ]
				}

			}
, 			{
				"patchline" : 				{
					"destination" : [ "obj-80", 0 ],
					"source" : [ "obj-21", 0 ]
				}

			}
, 			{
				"patchline" : 				{
					"destination" : [ "obj-72", 0 ],
					"source" : [ "obj-22", 0 ]
				}

			}
, 			{
				"patchline" : 				{
					"destination" : [ "obj-41", 0 ],
					"source" : [ "obj-27", 0 ]
				}

			}
, 			{
				"patchline" : 				{
					"destination" : [ "obj-42", 0 ],
					"source" : [ "obj-28", 0 ]
				}

			}
, 			{
				"patchline" : 				{
					"destination" : [ "obj-62", 0 ],
					"source" : [ "obj-29", 0 ]
				}

			}
, 			{
				"patchline" : 				{
					"destination" : [ "obj-112", 0 ],
					"source" : [ "obj-3", 19 ]
				}

			}
, 			{
				"patchline" : 				{
					"destination" : [ "obj-113", 0 ],
					"source" : [ "obj-3", 20 ]
				}

			}
, 			{
				"patchline" : 				{
					"destination" : [ "obj-117", 0 ],
					"source" : [ "obj-3", 30 ]
				}

			}
, 			{
				"patchline" : 				{
					"destination" : [ "obj-118", 0 ],
					"source" : [ "obj-3", 31 ]
				}

			}
, 			{
				"patchline" : 				{
					"destination" : [ "obj-119", 0 ],
					"source" : [ "obj-3", 32 ]
				}

			}
, 			{
				"patchline" : 				{
					"destination" : [ "obj-12", 0 ],
					"source" : [ "obj-3", 22 ]
				}

			}
, 			{
				"patchline" : 				{
					"destination" : [ "obj-120", 0 ],
					"source" : [ "obj-3", 27 ]
				}

			}
, 			{
				"patchline" : 				{
					"destination" : [ "obj-121", 0 ],
					"source" : [ "obj-3", 28 ]
				}

			}
, 			{
				"patchline" : 				{
					"destination" : [ "obj-122", 0 ],
					"source" : [ "obj-3", 29 ]
				}

			}
, 			{
				"patchline" : 				{
					"destination" : [ "obj-13", 0 ],
					"source" : [ "obj-3", 1 ]
				}

			}
, 			{
				"patchline" : 				{
					"destination" : [ "obj-14", 0 ],
					"source" : [ "obj-3", 2 ]
				}

			}
, 			{
				"patchline" : 				{
					"destination" : [ "obj-15", 0 ],
					"source" : [ "obj-3", 3 ]
				}

			}
, 			{
				"patchline" : 				{
					"destination" : [ "obj-16", 0 ],
					"source" : [ "obj-3", 4 ]
				}

			}
, 			{
				"patchline" : 				{
					"destination" : [ "obj-17", 0 ],
					"source" : [ "obj-3", 5 ]
				}

			}
, 			{
				"patchline" : 				{
					"destination" : [ "obj-18", 0 ],
					"source" : [ "obj-3", 6 ]
				}

			}
, 			{
				"patchline" : 				{
					"destination" : [ "obj-21", 0 ],
					"source" : [ "obj-3", 23 ]
				}

			}
, 			{
				"patchline" : 				{
					"destination" : [ "obj-22", 0 ],
					"source" : [ "obj-3", 18 ]
				}

			}
, 			{
				"patchline" : 				{
					"destination" : [ "obj-27", 0 ],
					"source" : [ "obj-3", 7 ]
				}

			}
, 			{
				"patchline" : 				{
					"destination" : [ "obj-28", 0 ],
					"source" : [ "obj-3", 8 ]
				}

			}
, 			{
				"patchline" : 				{
					"destination" : [ "obj-29", 0 ],
					"source" : [ "obj-3", 11 ]
				}

			}
, 			{
				"patchline" : 				{
					"destination" : [ "obj-30", 0 ],
					"source" : [ "obj-3", 10 ]
				}

			}
, 			{
				"patchline" : 				{
					"destination" : [ "obj-31", 0 ],
					"source" : [ "obj-3", 9 ]
				}

			}
, 			{
				"patchline" : 				{
					"destination" : [ "obj-33", 0 ],
					"source" : [ "obj-3", 12 ]
				}

			}
, 			{
				"patchline" : 				{
					"destination" : [ "obj-34", 0 ],
					"source" : [ "obj-3", 13 ]
				}

			}
, 			{
				"patchline" : 				{
					"destination" : [ "obj-35", 0 ],
					"source" : [ "obj-3", 14 ]
				}

			}
, 			{
				"patchline" : 				{
					"destination" : [ "obj-36", 0 ],
					"source" : [ "obj-3", 15 ]
				}

			}
, 			{
				"patchline" : 				{
					"destination" : [ "obj-37", 0 ],
					"source" : [ "obj-3", 16 ]
				}

			}
, 			{
				"patchline" : 				{
					"destination" : [ "obj-38", 0 ],
					"source" : [ "obj-3", 17 ]
				}

			}
, 			{
				"patchline" : 				{
					"destination" : [ "obj-5", 0 ],
					"source" : [ "obj-3", 24 ]
				}

			}
, 			{
				"patchline" : 				{
					"destination" : [ "obj-6", 0 ],
					"source" : [ "obj-3", 25 ]
				}

			}
, 			{
				"patchline" : 				{
					"destination" : [ "obj-7", 0 ],
					"source" : [ "obj-3", 26 ]
				}

			}
, 			{
				"patchline" : 				{
					"destination" : [ "obj-8", 0 ],
					"source" : [ "obj-3", 21 ]
				}

			}
, 			{
				"patchline" : 				{
					"destination" : [ "obj-9", 0 ],
					"source" : [ "obj-3", 0 ]
				}

			}
, 			{
				"patchline" : 				{
					"destination" : [ "obj-52", 0 ],
					"source" : [ "obj-30", 0 ]
				}

			}
, 			{
				"patchline" : 				{
					"destination" : [ "obj-43", 0 ],
					"source" : [ "obj-31", 0 ]
				}

			}
, 			{
				"patchline" : 				{
					"destination" : [ "obj-63", 0 ],
					"source" : [ "obj-33", 0 ]
				}

			}
, 			{
				"patchline" : 				{
					"destination" : [ "obj-64", 0 ],
					"source" : [ "obj-34", 0 ]
				}

			}
, 			{
				"patchline" : 				{
					"destination" : [ "obj-66", 0 ],
					"source" : [ "obj-35", 0 ]
				}

			}
, 			{
				"patchline" : 				{
					"destination" : [ "obj-67", 0 ],
					"source" : [ "obj-36", 0 ]
				}

			}
, 			{
				"patchline" : 				{
					"destination" : [ "obj-69", 0 ],
					"source" : [ "obj-37", 0 ]
				}

			}
, 			{
				"patchline" : 				{
					"destination" : [ "obj-71", 0 ],
					"source" : [ "obj-38", 0 ]
				}

			}
, 			{
				"patchline" : 				{
					"destination" : [ "obj-87", 0 ],
					"source" : [ "obj-5", 0 ]
				}

			}
, 			{
				"patchline" : 				{
					"destination" : [ "obj-89", 0 ],
					"source" : [ "obj-6", 0 ]
				}

			}
, 			{
				"patchline" : 				{
					"destination" : [ "obj-94", 0 ],
					"source" : [ "obj-7", 0 ]
				}

			}
, 			{
				"patchline" : 				{
					"destination" : [ "obj-53", 0 ],
					"source" : [ "obj-77", 0 ]
				}

			}
, 			{
				"patchline" : 				{
					"destination" : [ "obj-54", 0 ],
					"source" : [ "obj-78", 0 ]
				}

			}
, 			{
				"patchline" : 				{
					"destination" : [ "obj-55", 0 ],
					"source" : [ "obj-79", 0 ]
				}

			}
, 			{
				"patchline" : 				{
					"destination" : [ "obj-75", 0 ],
					"source" : [ "obj-8", 0 ]
				}

			}
, 			{
				"patchline" : 				{
					"destination" : [ "obj-58", 0 ],
					"source" : [ "obj-81", 0 ]
				}

			}
, 			{
				"patchline" : 				{
					"destination" : [ "obj-57", 0 ],
					"source" : [ "obj-82", 0 ]
				}

			}
, 			{
				"patchline" : 				{
					"destination" : [ "obj-56", 0 ],
					"source" : [ "obj-83", 0 ]
				}

			}
, 			{
				"patchline" : 				{
					"destination" : [ "obj-61", 0 ],
					"source" : [ "obj-84", 0 ]
				}

			}
, 			{
				"patchline" : 				{
					"destination" : [ "obj-60", 0 ],
					"source" : [ "obj-85", 0 ]
				}

			}
, 			{
				"patchline" : 				{
					"destination" : [ "obj-59", 0 ],
					"source" : [ "obj-86", 0 ]
				}

			}
, 			{
				"patchline" : 				{
					"destination" : [ "obj-23", 0 ],
					"source" : [ "obj-9", 0 ]
				}

			}
, 			{
				"patchline" : 				{
					"destination" : [ "obj-90", 0 ],
					"source" : [ "obj-91", 0 ]
				}

			}
, 			{
				"patchline" : 				{
					"destination" : [ "obj-65", 0 ],
					"source" : [ "obj-92", 0 ]
				}

			}
, 			{
				"patchline" : 				{
					"destination" : [ "obj-88", 0 ],
					"source" : [ "obj-93", 0 ]
				}

			}
, 			{
				"patchline" : 				{
					"destination" : [ "obj-70", 0 ],
					"source" : [ "obj-95", 0 ]
				}

			}
, 			{
				"patchline" : 				{
					"destination" : [ "obj-68", 0 ],
					"source" : [ "obj-96", 0 ]
				}

			}
 ],
		"dependency_cache" : [  ],
		"autosave" : 0
	}

}
